# xmcd
#
# Track frame offsets:
#	150
#	16023
#	29812
#	58075
#	85820
#	100696
#	118422
#	142784
#	155398
#	172548
#	191118
#	205701
#	235004
#	260213
#	276312
#
# Disc length: 3852 seconds
#
# Revision: 0
# Processed by: cddbd v1.5.2PL0 Copyright (c) Steve Scherf et al.
# Submitted via: EZCDAudioConverter 1.1.0.1
#
DISCID=c90f0a0f
DTITLE=GProject Blues Band - Blue Shadow
DYEAR=2013
DGENRE=Blues
TTITLE0=100 Buck´s
TTITLE1=Downtown
TTITLE2=Lonesome Highway
TTITLE3=Rocky Mountain Way
TTITLE4=Blue Shadow
TTITLE5=Keep Your Hands To Yourself
TTITLE6=Get It Done
TTITLE7=Lonesome Rider
TTITLE8=Long As I Can See The Light
TTITLE9=Dust My Broom
TTITLE10=Joe´s Blues For Muddy Waters
TTITLE11=Blues Deluxe
TTITLE12=Sixteen Tons
TTITLE13=Soldier Of Fortune
TTITLE14=Changed My Mind
EXTD=
EXTT0=
EXTT1=
EXTT2=
EXTT3=
EXTT4=
EXTT5=
EXTT6=
EXTT7=
EXTT8=
EXTT9=
EXTT10=
EXTT11=
EXTT12=
EXTT13=
EXTT14=
PLAYORDER=
